<!-- icon666.com - MILLIONS vector ICONS FREE --><svg id="icons" viewBox="0 0 64 64" xmlns="http://www.w3.org/2000/svg"><path d="m46 31v8h12l-4.25-8zm16 15v5h-7a5 5 0 0 0 -9 3h-3.01v-26h13.01l6 11v3h-3v4z" fill="#ed5565"/><path d="m59 42h3v4h-3z" fill="#e6e9ed"/><circle cx="51" cy="54" fill="#ccd1d9" r="2"/><path d="m63 51v3h-7a4.94119 4.94119 0 0 0 -1-3z" fill="#da4453"/><g fill="#5d9cec"><path d="m53.75 31 4.25 8h-12v-8z"/><path d="m26 32h13v7h-13z"/><path d="m25 21h12.99a9.98 9.98 0 0 1 -15.98 0z"/></g><path d="m30 18h-3a1.99309 1.99309 0 0 0 -2 2v1h-3a10 10 0 1 1 16 0h-3v-1a1.99309 1.99309 0 0 0 -2-2z" fill="#87bcf4"/><path d="m5 32h15v7h-15z" fill="#5d9cec"/><path d="m17 54a2 2 0 1 0 -2 2 2.00588 2.00588 0 0 0 2-2zm-2-5a5 5 0 1 1 -5 5 5.00182 5.00182 0 0 1 5-5z" fill="#656d78"/><path d="m27 18h6a1.99309 1.99309 0 0 1 2 2v1h-10v-1a1.99309 1.99309 0 0 1 2-2z" fill="#ffce54"/><circle cx="15" cy="54" fill="#ccd1d9" r="2"/><path d="m23 54v-26h19.99v26zm3-15h13v-7h-13z" fill="#ed5565"/><path d="m53 54a2 2 0 1 0 -2 2 2.00588 2.00588 0 0 0 2-2zm2-3a4.94119 4.94119 0 0 1 1 3 5 5 0 1 1 -1-3z" fill="#656d78"/><path d="m20 32h-15v7h15zm3-4v26h-3a5 5 0 0 0 -10 0h-9v-26z" fill="#ed5565"/><path d="m42.99219 55.00293a.99942.99942 0 0 1 -1-1l.001-25.00391h-39.99319v25.00391a1 1 0 0 1 -2 0v-26.00393a.99943.99943 0 0 1 1-1h41.99316a1.00025 1.00025 0 0 1 1 1l-.001 26.00391a1.00005 1.00005 0 0 1 -.99997 1.00002z"/><path d="m14.99805 60.00293a6 6 0 1 1 6-6 6.00656 6.00656 0 0 1 -6 6zm0-10a4 4 0 1 0 4 4 4.004 4.004 0 0 0 -4-4z"/><path d="m14.99805 57.00293a3 3 0 1 1 3-3 3.00328 3.00328 0 0 1 -3 3zm0-4a1 1 0 1 0 1 1 1.00067 1.00067 0 0 0 -1-1z"/><path d="m50.99512 60.00293a6 6 0 1 1 6-6 6.00656 6.00656 0 0 1 -6 6zm0-10a4 4 0 1 0 4 4 4.004 4.004 0 0 0 -4-4z"/><path d="m50.99512 57.00293a3 3 0 1 1 3-3 3.00328 3.00328 0 0 1 -3 3zm0-4a1 1 0 1 0 1 1 1.00067 1.00067 0 0 0 -1-1z"/><path d="m62 52.00293a.99943.99943 0 0 1 -1-1v-11.74707l-5.59375-10.25686h-12.41309a1 1 0 0 1 0-2h13.00684a.99949.99949 0 0 1 .87793.52149l6 11.002a.99892.99892 0 0 1 .12207.47851v12.002a.99943.99943 0 0 1 -1 .99993z"/><path d="m57.99707 40h-12.001a1 1 0 0 1 0-2h12.001a1 1 0 1 1 0 2z"/><path d="m63 52.00391h-8.00488a1 1 0 0 1 0-2h8.00488a1 1 0 0 1 0 2z"/><path d="m63 55.00293h-7.00488a1 1 0 0 1 0-2h7.00488a1 1 0 0 1 0 2z"/><path d="m62 43.00293h-3.001a1 1 0 0 1 0-2h3.001a1 1 0 0 1 0 2z"/><path d="m58.999 47.00293a.99943.99943 0 0 1 -1-1v-4a1 1 0 1 1 2 0v4a.99942.99942 0 0 1 -1 1z"/><path d="m62 47.00293h-3.001a1 1 0 0 1 0-2h3.001a1 1 0 0 1 0 2z"/><path d="m45.99512 55.00293h-.00293a.99951.99951 0 1 1 .00293 0z"/><path d="m57.99805 40a.99909.99909 0 0 1 -.88379-.53027l-4.249-7.9961a1 1 0 1 1 1.76563-.93945l4.249 7.99609a1 1 0 0 1 -.88184 1.46973z"/><path d="m53.74805 32.00391h-7.75a1 1 0 0 1 0-2h7.75a1 1 0 0 1 0 2z"/><path d="m45.99609 40a.99943.99943 0 0 1 -1-1v-7.99609a1 1 0 1 1 2 0v7.99609a.99942.99942 0 0 1 -1 1z"/><path d="m9.99707 55.00293h-8.99707a1 1 0 0 1 0-2h8.99707a1 1 0 0 1 0 2z"/><path d="m45.99512 55.00293h-25.99612a1 1 0 1 1 0-2h25.9961a1 1 0 0 1 0 2z"/><path d="m63 55.00293a.99943.99943 0 0 1 -1-1v-2.999a1 1 0 1 1 2 0v2.999a.99943.99943 0 0 1 -1 1z"/><path d="m19.99805 39.99707h-14.99805a.99943.99943 0 0 1 -1-1v-7a.99943.99943 0 0 1 1-1h14.99805a.99943.99943 0 0 1 1 1v7a.99943.99943 0 0 1 -1 1zm-13.998-2h12.998v-5h-12.99805z"/><path d="m38.99805 39.99707h-12.99805a.99943.99943 0 0 1 -1-1v-7a.99943.99943 0 0 1 1-1h12.998a.99943.99943 0 0 1 1 1v7a.99943.99943 0 0 1 -.99995 1zm-11.998-2h10.998v-5h-10.99805z"/><path d="m23 54.99707a.99943.99943 0 0 1 -1-1v-25.99807a1 1 0 0 1 2 0v25.99807a.99943.99943 0 0 1 -1 1z"/><path d="m28 43.00293h-2a1 1 0 1 1 0-2h2a1 1 0 0 1 0 2z"/><path d="m30 25.99707a11 11 0 1 1 11-11 11.01245 11.01245 0 0 1 -11 11zm0-20a9 9 0 1 0 9 9 9.00984 9.00984 0 0 0 -9-9z"/><path d="m38 21.99707h-16a1 1 0 0 1 0-2h16a1 1 0 0 1 0 2z"/><path d="m25 20.99707a.99943.99943 0 0 1 -1-1 3.00328 3.00328 0 0 1 3-3 1 1 0 0 1 0 2 1.00067 1.00067 0 0 0 -1 1 .99943.99943 0 0 1 -1 1z"/><path d="m35 20.99707a.99943.99943 0 0 1 -1-1 1.00067 1.00067 0 0 0 -1-1 1 1 0 0 1 0-2 3.00328 3.00328 0 0 1 3 3 .99943.99943 0 0 1 -1 1z"/><path d="m33 18.99707h-6a1 1 0 0 1 0-2h6a1 1 0 0 1 0 2z"/><path d="m35 21.99707a.99943.99943 0 0 1 -1-1v-1a1 1 0 0 1 2 0v1a.99943.99943 0 0 1 -1 1z"/><path d="m25 21.99707a.99943.99943 0 0 1 -1-1v-1a1 1 0 0 1 2 0v1a.99943.99943 0 0 1 -1 1z"/><path d="m30 18.99707a.99943.99943 0 0 1 -1-1v-4.97754a1 1 0 0 1 2 0v4.97754a.99943.99943 0 0 1 -1 1z"/><path d="m36 14.01953a.99942.99942 0 0 1 -1-1 2 2 0 0 0 -4 0 1 1 0 1 1 -2 0 4 4 0 0 1 8 0 .99942.99942 0 0 1 -1 1z"/><path d="m33 15.01953a.99942.99942 0 0 1 -1-1 .5.5 0 0 0 -1 0 1 1 0 1 1 -2 0 2.5 2.5 0 0 1 5 0 .99942.99942 0 0 1 -1 1z"/><path d="m30 14.01953a.99942.99942 0 0 1 -1-1 2 2 0 0 0 -4 0 1 1 0 1 1 -2 0 4 4 0 0 1 8 0 .99942.99942 0 0 1 -1 1z"/><path d="m30 15.01953a.99942.99942 0 0 1 -1-1 .5.5 0 0 0 -1 0 1 1 0 1 1 -2 0 2.5 2.5 0 0 1 5 0 .99942.99942 0 0 1 -1 1z"/><path d="m30 28.999a.99942.99942 0 0 1 -1-1v-3.002a1 1 0 0 1 2 0v3.002a.99942.99942 0 0 1 -1 1z"/></svg>